<svg xmlns="http://www.w3.org/2000/svg" viewBox="0 0 512 512">
  <rect width="512" height="512" fill="#fff"/>
  <g transform="translate(48,333) scale(0.21,-0.21)" fill="#BC002D">
    <path d="M285 783L238 665C379 647 663 583 779 540L830 665C704 709 416 767 285 783ZM239 514L193 393C342 369 598 311 713 267L762 392C636 436 382 490 239 514ZM188 228L138 102C298 78 614 9 749-47L804 78C667 129 359 201 188 228Z"/>
    <path transform="translate(1000,0)" d="M170 679V534C204 536 250 538 288 538 343 538 648 538 701 538 736 538 783 535 812 534V679C784 676 741 673 701 673 646 673 372 673 287 673 253 673 206 675 170 679ZM86 190V37C123 40 172 43 211 43 275 43 723 43 785 43 815 43 860 41 895 37V190C861 186 819 184 785 184 723 184 275 184 211 184 172 184 125 187 86 190Z"/>
  </g>
</svg>
